<?xml version="1.0" encoding="utf-8"?>
<!-- Generator: Adobe Illustrator 26.0.3, SVG Export Plug-In . SVG Version: 6.00 Build 0)  -->
<svg version="1.1" id="Layer_1" xmlns="http://www.w3.org/2000/svg" xmlns:xlink="http://www.w3.org/1999/xlink" x="0px" y="0px"
	 viewBox="0 0 118.08 46.68" style="enable-background:new 0 0 118.08 46.68;" xml:space="preserve">
<style type="text/css">
	.st0{fill:#1E1E1C;}
</style>
<g>
	<path class="st0" d="M20.36,41.55c-1.18,0.79-2.45,1.19-3.8,1.19c-0.82,0-1.6-0.17-2.35-0.51c-0.75-0.34-1.4-0.83-1.95-1.48
		c-0.55-0.64-1-1.45-1.35-2.41c-0.23-0.68-0.41-1.39-0.55-2.13c-0.14-0.74-0.27-1.73-0.39-2.98h14.54c0-1.42-0.25-2.94-0.74-4.56
		s-1.52-3.07-3.08-4.36c-1.56-1.29-3.78-1.93-6.68-1.93c-2.82,0-5.24,0.52-7.28,1.57c-2.04,1.05-3.58,2.51-4.63,4.39
		c-1.05,1.88-1.57,4.05-1.57,6.49c0,1.57,0.29,3.03,0.86,4.38c0.57,1.35,1.4,2.53,2.49,3.55c1.09,1.02,2.4,1.82,3.93,2.39
		c1.53,0.58,3.19,0.87,4.97,0.89c2.04,0,3.78-0.25,5.22-0.75c1.44-0.5,2.7-1.21,3.76-2.11c1.07-0.91,2.12-2.02,3.17-3.35l-1.41-1.37
		C22.59,39.72,21.54,40.75,20.36,41.55z M10.11,29.81c0.06-0.66,0.11-1.12,0.15-1.38c0.42-2.51,1.25-3.85,2.51-4.02
		c1.53,0,2.49,1.31,2.88,3.94c0.04,0.51,0.08,1.02,0.12,1.54c0.04,0.52,0.08,1.04,0.12,1.56H9.96C10,31.02,10.05,30.47,10.11,29.81z
		"/>
	<path class="st0" d="M104.94,31.37c-1.33-0.87-2.35-1.61-3.08-2.2c-0.72-0.6-1.2-1.08-1.42-1.46c-0.22-0.38-0.33-0.79-0.33-1.25
		c0-0.58,0.21-1.06,0.63-1.44c0.42-0.38,0.97-0.57,1.64-0.57c1.15,0.05,2.15,0.62,2.98,1.71c0.83,1.09,1.29,2.23,1.39,3.44h1.89
		l0.04-5.65c-3.38-1.15-6.24-1.73-8.57-1.73c-1.78,0-3.3,0.32-4.56,0.96c-1.25,0.64-2.19,1.49-2.82,2.55
		c-0.62,1.06-0.94,2.19-0.94,3.38c0,1.44,0.41,2.76,1.24,3.98c0.82,1.22,2.21,2.49,4.15,3.8c1.85,1.25,3.09,2.17,3.71,2.78
		c0.62,0.6,0.94,1.23,0.94,1.89c0,0.7-0.28,1.25-0.85,1.65c-0.56,0.4-1.23,0.6-1.99,0.6c-1.42,0-2.65-0.52-3.68-1.57
		c-1.03-1.05-1.62-2.19-1.75-3.42h-2.03l0.42,7.06h2.01c0.16-0.52,0.59-0.78,1.29-0.78c0.05,0,0.81,0.14,2.28,0.41
		c1.47,0.27,2.74,0.41,3.81,0.41c1.78,0,3.34-0.36,4.66-1.07c1.32-0.71,2.32-1.64,2.99-2.79c0.67-1.15,1.01-2.34,1.01-3.57
		c0-1.56-0.44-2.88-1.31-3.98C107.83,33.4,106.58,32.36,104.94,31.37z"/>
	<path class="st0" d="M117.66,25.59c-0.2-3.8-1.9-7.19-4.18-9.89c-4.79-5.68-13.38-9.86-24.18-12.53c-0.64-0.14-1.28-0.29-1.92-0.43
		C82.7,1.84,78.09,1.18,73.75,0.9c-12.5-0.78-23.64,0.22-33.77,2.41c-12.57,2.72-24.05,7.34-32.7,14.74
		c-0.45,0.38-1.03,0.75-1.32,1.15h22.38c4.81-3.43,10.54-5.94,16.68-7.84c8.44-2.61,17.92-4.16,28.31-4.11
		c5.29,0.03,11.2,0.34,17.19,1.69c12.64,2.86,21.71,7.82,24.74,15.25c1.43,3.5,1.29,8.72-1.47,12.77
		C116.21,33.91,117.86,29.38,117.66,25.59z"/>
	<path class="st0" d="M81.43,21.38c1.45,0,2.64-0.38,3.58-1.14c0.94-0.76,1.4-1.73,1.4-2.91c0-0.51-0.1-1.01-0.3-1.48
		c-0.2-0.47-0.51-0.92-0.95-1.33c-0.43-0.42-0.97-0.74-1.61-0.97c-0.64-0.23-1.37-0.35-2.2-0.35c-1.51,0-2.73,0.39-3.65,1.18
		c-0.92,0.79-1.39,1.76-1.39,2.9c0.02,1.13,0.49,2.1,1.41,2.9C78.65,20.98,79.89,21.38,81.43,21.38z"/>
	<path class="st0" d="M87.47,42.06c-0.47-0.69-0.7-1.69-0.7-2.99V22.88l-1.11-0.5c-1.29,0.51-2.69,0.97-4.2,1.37
		c-1.31,0.35-2.58,0.64-3.8,0.86c-1.22,0.23-2.57,0.41-4.06,0.54v1.35c1.35,0,2.33,0.21,2.93,0.63c0.6,0.42,0.9,1.46,0.9,3.11
		l0.04,8.83c0,1.41-0.29,2.45-0.88,3.14c-0.17,0.2-0.35,0.36-0.54,0.5c-0.03,0.02-0.06,0.05-0.09,0.07
		c-0.95,0.71-2.38,0.87-3.53,0.49c-0.53-0.11-0.94-0.44-1.24-0.99c-0.33-0.56-0.51-1.27-0.5-1.87c-0.04-0.39-0.06-0.82-0.06-1.3
		c0.16-2.44,0.24-4.67,0.24-6.68c0-1.1-0.01-1.94-0.04-2.51c-0.04-1.14-0.24-2.18-0.61-3.12c-0.37-0.94-0.87-1.74-1.49-2.39
		c-0.62-0.66-1.35-1.16-2.19-1.51c-0.84-0.35-1.74-0.52-2.71-0.52c-1.11,0-2.3,0.25-3.57,0.75c-1.27,0.5-3.09,1.56-5.46,3.17
		c-0.23-0.8-0.62-1.51-1.17-2.11c-0.55-0.6-1.23-1.07-2.03-1.4c-0.8-0.33-1.69-0.49-2.66-0.49c-1.73,0-3.36,0.38-4.89,1.15
		c-1.53,0.76-3.17,1.84-4.91,3.22v-3.78l-1.11-0.5c-1.93,0.75-3.83,1.34-5.69,1.77c-0.71,0.17-1.58,0.35-2.61,0.51
		c-1.03,0.17-1.89,0.29-2.6,0.36c-0.7,0.07-1.1,0.12-1.18,0.13v1.35c1.39,0.43,2.31,0.74,2.75,0.92c0.44,0.19,0.72,0.41,0.87,0.66
		c0.14,0.25,0.21,0.67,0.21,1.25v0.91v8.67c0,2.96-0.93,4.45-2.8,4.45c-0.32,0-0.66-0.04-1.03-0.12v2.05
		c2.98-0.31,5.71-0.46,8.19-0.46c2.37,0,4.97,0.15,7.81,0.46V43.2c-0.28,0.08-0.54,0.12-0.81,0.12c-0.68,0-1.19-0.33-1.52-1
		c-0.33-0.66-0.49-1.75-0.49-3.25V28.31c1.76-1.02,3.12-1.53,4.08-1.53c0.8,0,1.42,0.31,1.84,0.93c0.42,0.62,0.63,1.52,0.63,2.72
		v8.73c0,2.75-0.74,4.12-2.23,4.12c-0.05,0-0.15-0.01-0.29-0.03v2c2.6-0.28,5.02-0.42,7.25-0.42c2.21,0,4.67,0.15,7.38,0.44v-2.05
		c-0.23,0.04-0.45,0.07-0.66,0.07c-0.72,0-1.25-0.33-1.59-1c-0.34-0.66-0.5-1.72-0.5-3.17V27.91c1.22-0.83,2.36-1.25,3.42-1.25
		c0.86,0,1.55,0.28,2.07,0.83c0.52,0.55,0.85,1.33,0.97,2.35c0.16,1.22,0.24,2.68,0.24,4.37c-0.03,0.82-0.05,1.66-0.08,2.54
		c-0.03,0.66-0.04,1.27-0.04,1.85c0,0.19,0,0.38,0,0.56c-0.01,1.18-0.15,2.06-0.41,2.65c-0.26,0.58-0.58,0.96-0.97,1.14
		c-0.34,0.15-0.75,0.24-1.23,0.25v2.08c2.67-0.29,5.1-0.44,7.28-0.44c2.23,0,4.67,0.15,7.31,0.44v0.03c0.05,0,0.09-0.01,0.14-0.01
		c0.04,0,0.08,0.01,0.12,0.01v-0.02c2.96-0.29,5.65-0.44,8.09-0.44c2.55,0,5.35,0.15,8.41,0.46v-2.19
		C88.9,43.09,87.94,42.75,87.47,42.06z"/>
</g>
</svg>
